<svg width="24" height="24" viewBox="0 0 16 16" fill="none" xmlns="http://www.w3.org/2000/svg" aria-hidden="true">
  <path
    fill="#000000"
    d="M13.601 2.326A7.854 7.854 0 0 0 7.994 0C3.627 0 .068 3.558.068 7.926c0 1.399.366 2.76 1.057 3.965L0 16l4.204-1.102a7.933 7.933 0 0 0 3.79.965h.004c4.368 0 7.926-3.558 7.926-7.926a7.858 7.858 0 0 0-2.323-5.647zM7.994 14.2c-1.188 0-2.352-.32-3.371-.914l-.241-.143-2.494.654.666-2.433-.157-.25a6.415 6.415 0 0 1-1.08-3.6c0-3.537 2.872-6.409 6.409-6.409 1.714 0 3.322.667 4.534 1.878a6.361 6.361 0 0 1 1.876 4.53c-.003 3.535-2.875 6.407-6.41 6.407zm3.72-4.018c-.194-.097-1.149-.566-1.327-.631-.178-.065-.308-.097-.437.097-.129.194-.5.631-.612.761-.112.129-.225.145-.419.048-.194-.097-.818-.301-1.557-.958-.576-.514-.965-1.147-1.078-1.341-.112-.194-.012-.299.084-.395.086-.086.194-.225.291-.338.097-.112.129-.194.194-.323.065-.129.032-.242-.016-.338-.048-.097-.437-1.052-.599-1.44-.158-.378-.319-.326-.437-.332-.112-.006-.241-.006-.371-.006-.129 0-.339.048-.516.242-.178.194-.672.656-.672 1.599 0 .943.689 1.854.785 1.982.097.129 1.357 2.073 3.287 2.909 1.93.835 1.93.556 2.277.523.347-.032 1.149-.467 1.31-.919.161-.452.161-.84.112-.919-.048-.078-.178-.129-.371-.226z"
  />
</svg>
