<svg width="24" height="24" viewBox="0 0 16 16" fill="none" xmlns="http://www.w3.org/2000/svg" aria-hidden="true">
  <path
    fill="#000000"
    d="M15.545 6.558a9.42 9.42 0 0 1 .004 10.62c-.35.51-.74.97-1.17 1.37a9.33 9.33 0 0 1-4.1 2.31 9.4 9.4 0 0 1-5.01-.02 9.36 9.36 0 0 1-4.04-2.24 9.18 9.18 0 0 1-1.36-1.37 9.05 9.05 0 0 1 0-10.29c.35-.51.74-.97 1.17-1.37a9.33 9.33 0 0 1 4.1-2.31 9.32 9.32 0 0 1 5.02.02 9.3 9.3 0 0 1 4.03 2.24c.4.43.77.9 1.1 1.4h-2.99a5.3 5.3 0 0 0-8.38-2.19 5.26 5.26 0 0 0 0 7.1 5.22 5.22 0 0 0 7.08 0 5.19 5.19 0 0 0 1.37-2.61H9.16V8.55h8.21c.09.48.14.97.14 1.45a7.5 7.5 0 0 1-.14 1.48h-.01z"
  />
</svg>
